# xmcd
#
# Track frame offsets: 
#        182
#        15957
#        30630
#        46385
#
# Disc length: 631 seconds
#
# Revision: 2
# Processed by: cddbd v1.5.2PL0 Copyright (c) Steve Scherf et al.
# Submitted via: ExactAudioCopy v0.95b4
#
DISCID=22027504
DTITLE=Caught In The Act - You Know (Dutch Maxi-Single)
DYEAR=1996
DGENRE=Pop/Rock
TTITLE0=You Know (Radio Mix)
TTITLE1=You Know (Album Mix)
TTITLE2=You Know (Radio Instrumental)
TTITLE3=Christmas Message
EXTD=
EXTT0=
EXTT1=
EXTT2=
EXTT3=
PLAYORDER=
